<?xml version="1.0" encoding="utf-8"?>
<!-- Generator: Adobe Illustrator 19.1.0, SVG Export Plug-In . SVG Version: 6.00 Build 0)  -->
<svg version="1.1" xmlns="http://www.w3.org/2000/svg" xmlns:xlink="http://www.w3.org/1999/xlink" x="0px" y="0px"
	 viewBox="-569 571 60 60" style="enable-background:new -569 571 60 60;" xml:space="preserve">
<style type="text/css">
	.st0{display:none;}
	.st1{display:inline;}
	.st2{fill:none;stroke:#231F20;stroke-width:1.5;stroke-linecap:round;stroke-linejoin:round;stroke-miterlimit:10;}
	.st3{fill:none;stroke:#231F20;stroke-width:2;stroke-linecap:round;stroke-linejoin:round;stroke-miterlimit:10;}
</style>
<g id="Layer_1" class="st0">
	<g class="st1">
		<polyline class="st2" points="-531.6,572 -562.9,572 -562.9,630 -531.6,630 		"/>
		<g>
			<g>
				<g>
					<path class="st2" d="M-528,586.4c3.9,3.9,12.8,14.5,12.8,14.5s-9,10.6-12.9,14.5"/>
				</g>
			</g>
			<line class="st2" x1="-515.1" y1="601" x2="-547.4" y2="601"/>
		</g>
	</g>
</g>
<g id="Layer_2" class="st0">
	<g class="st1">
		<polyline class="st2" points="-534.7,588.9 -517.9,588.9 -517.9,631 -560.1,631 -560.1,588.9 -543.5,588.9 		"/>
		<g>
			<g>
				<g>
					<path class="st2" d="M-549.6,582.4c2.8-2.8,10.6-9.4,10.6-9.4s7.8,6.5,10.6,9.4"/>
				</g>
			</g>
			<line class="st2" x1="-539" y1="573" x2="-539" y2="610"/>
		</g>
	</g>
</g>
<g id="Layer_3">
	<g>
		<path class="st3" d="M-566.7,629.7c-0.8-1.7-1.3-3.6-1.3-5.6V602c0-7.1,5.8-12.9,12.9-12.9h40.3"/>
		<g>
			<g>
				<g>
					<path class="st3" d="M-531.9,571.8c0,0,17.2,17.2,17.2,17.2s-17.2,17.3-17.2,17.2"/>
				</g>
			</g>
		</g>
	</g>
</g>
</svg>
